<?xml version="1.0" encoding="UTF-8"?>
<svg xmlns="http://www.w3.org/2000/svg" xmlns:xlink="http://www.w3.org/1999/xlink" width="1923pt" height="72pt" viewBox="0 0 1923 72" version="1.1">
<g id="surface1">
<path style=" stroke:none;fill-rule:nonzero;fill:rgb(78.039216%,15.686275%,10.196078%);fill-opacity:1;" d="M 164.261719 47.179688 C 140.386719 45.09375 128.453125 42.0625 129.210938 38.085938 C 129.777344 35.429688 133.378906 35.050781 156.304688 35.050781 C 183.015625 35.050781 193.246094 36.378906 193.246094 39.789062 C 193.246094 42.632812 186.046875 49.261719 183.394531 49.074219 C 182.070312 48.882812 173.355469 48.125 164.261719 47.179688 Z M 164.261719 47.179688 "/>
<path style=" stroke:none;fill-rule:nonzero;fill:rgb(78.039216%,15.686275%,10.196078%);fill-opacity:1;" d="M 802.921875 47.179688 C 780.378906 45.285156 765.410156 41.875 765.410156 38.84375 C 765.410156 34.863281 770.148438 34.105469 794.398438 34.292969 C 820.921875 34.671875 828.691406 35.808594 829.257812 39.789062 C 830.585938 47.558594 824.710938 49.074219 802.921875 47.179688 Z M 802.921875 47.179688 "/>
<path style=" stroke:none;fill-rule:nonzero;fill:rgb(78.039216%,15.686275%,10.196078%);fill-opacity:1;" d="M 1427.566406 47.179688 C 1403.125 44.90625 1392.136719 42.0625 1392.894531 38.085938 C 1394.03125 32.019531 1454.089844 32.96875 1456.363281 39.222656 C 1457.691406 42.441406 1450.679688 49.453125 1446.703125 49.074219 C 1445.566406 48.882812 1437.039062 47.9375 1427.566406 47.179688 Z M 1427.566406 47.179688 "/>
<path style=" stroke:none;fill-rule:nonzero;fill:rgb(78.039216%,15.686275%,10.196078%);fill-opacity:1;" d="M 56.457031 41.683594 C 35.996094 37.328125 26.523438 34.292969 26.523438 32.019531 C 26.523438 27.472656 30.503906 27.472656 84.5 33.347656 C 96.625 34.671875 99.277344 36.378906 97.570312 41.496094 C 96.433594 45.09375 94.917969 45.472656 84.6875 45.285156 C 78.246094 45.285156 65.550781 43.578125 56.457031 41.683594 Z M 56.457031 41.683594 "/>
<path style=" stroke:none;fill-rule:nonzero;fill:rgb(78.039216%,15.686275%,10.196078%);fill-opacity:1;" d="M 706.679688 44.148438 C 694.933594 42.441406 667.652344 35.429688 665.375 33.726562 C 663.859375 32.398438 663.671875 30.882812 664.996094 29.367188 C 666.324219 27.664062 671.25 27.664062 686.21875 29.558594 C 697.015625 30.882812 711.226562 32.398438 718.046875 33.15625 C 733.011719 34.484375 735.855469 36 734.148438 41.496094 C 733.011719 44.90625 731.6875 45.472656 722.214844 45.285156 C 716.339844 45.09375 709.332031 44.714844 706.679688 44.148438 Z M 706.679688 44.148438 "/>
<path style=" stroke:none;fill-rule:nonzero;fill:rgb(78.039216%,15.686275%,10.196078%);fill-opacity:1;" d="M 1320.144531 41.683594 C 1298.167969 37.136719 1290.210938 34.292969 1290.210938 31.261719 C 1290.210938 27.285156 1293.242188 27.09375 1313.703125 29.558594 C 1324.3125 30.882812 1338.332031 32.398438 1345.152344 33.15625 C 1360.121094 34.484375 1362.960938 36 1361.257812 41.496094 C 1360.121094 45.09375 1358.605469 45.472656 1348.375 45.285156 C 1341.933594 45.285156 1329.238281 43.578125 1320.144531 41.683594 Z M 1320.144531 41.683594 "/>
<path style=" stroke:none;fill-rule:nonzero;fill:rgb(78.039216%,15.686275%,10.196078%);fill-opacity:1;" d="M 238.148438 41.304688 C 233.601562 39.980469 231.140625 38.464844 231.519531 36.757812 C 231.898438 34.484375 237.582031 33.914062 259.179688 33.535156 C 285.511719 33.15625 286.082031 33.15625 286.082031 37.136719 C 286.082031 39.789062 284.566406 41.683594 281.914062 42.441406 C 275.28125 44.148438 246.105469 43.390625 238.148438 41.304688 Z M 238.148438 41.304688 "/>
<path style=" stroke:none;fill-rule:nonzero;fill:rgb(78.039216%,15.686275%,10.196078%);fill-opacity:1;" d="M 333.445312 41.117188 C 323.214844 39.222656 321.132812 38.273438 321.132812 35.050781 C 321.132812 31.453125 322.648438 31.261719 348.222656 30.695312 C 371.527344 30.316406 375.316406 30.695312 376.453125 33.15625 C 379.675781 42.0625 359.023438 45.851562 333.445312 41.117188 Z M 333.445312 41.117188 "/>
<path style=" stroke:none;fill-rule:nonzero;fill:rgb(78.039216%,15.686275%,10.196078%);fill-opacity:1;" d="M 875.863281 41.496094 C 872.453125 40.546875 869.613281 38.464844 869.613281 36.949219 C 869.613281 34.671875 873.78125 34.105469 893.296875 33.726562 C 906.367188 33.535156 918.492188 33.347656 920.199219 33.347656 C 924.554688 33.15625 925.3125 36.949219 921.714844 40.546875 C 919.25 43.011719 914.703125 43.578125 900.304688 43.390625 C 890.265625 43.390625 879.085938 42.441406 875.863281 41.496094 Z M 875.863281 41.496094 "/>
<path style=" stroke:none;fill-rule:nonzero;fill:rgb(78.039216%,15.686275%,10.196078%);fill-opacity:1;" d="M 971.921875 41.496094 C 957.898438 39.410156 955.058594 37.515625 958.65625 33.15625 C 960.742188 30.695312 965.480469 30.316406 987.835938 30.695312 C 1013.410156 31.261719 1014.546875 31.453125 1013.980469 35.050781 C 1013.601562 37.136719 1012.652344 39.601562 1011.707031 40.546875 C 1009.242188 43.011719 985.941406 43.578125 971.921875 41.496094 Z M 971.921875 41.496094 "/>
<path style=" stroke:none;fill-rule:nonzero;fill:rgb(78.039216%,15.686275%,10.196078%);fill-opacity:1;" d="M 1502.402344 41.117188 C 1498.804688 39.980469 1495.773438 37.707031 1495.773438 36.378906 C 1495.773438 34.671875 1502.402344 33.914062 1522.675781 33.535156 C 1549.957031 33.15625 1553.367188 33.914062 1549.578125 39.980469 C 1547.492188 43.578125 1511.6875 44.527344 1502.402344 41.117188 Z M 1502.402344 41.117188 "/>
<path style=" stroke:none;fill-rule:nonzero;fill:rgb(78.039216%,15.686275%,10.196078%);fill-opacity:1;" d="M 1597.132812 41.117188 C 1586.902344 39.222656 1584.816406 38.273438 1584.816406 35.050781 C 1584.816406 31.453125 1586.144531 31.261719 1612.289062 31.261719 C 1635.214844 31.261719 1639.761719 31.640625 1640.140625 34.105469 C 1640.519531 35.621094 1639.949219 38.085938 1639.003906 39.601562 C 1636.730469 43.199219 1613.046875 43.957031 1597.132812 41.117188 Z M 1597.132812 41.117188 "/>
<path style=" stroke:none;fill-rule:nonzero;fill:rgb(78.039216%,15.686275%,10.196078%);fill-opacity:1;" d="M 428.742188 39.980469 C 410.367188 38.652344 402.976562 35.621094 411.3125 32.589844 C 413.777344 31.640625 427.039062 30.316406 440.679688 29.558594 C 461.332031 28.609375 465.878906 28.800781 467.773438 31.074219 C 469.667969 33.347656 469.289062 34.671875 466.257812 37.707031 C 461.898438 42.0625 460.953125 42.0625 428.742188 39.980469 Z M 428.742188 39.980469 "/>
<path style=" stroke:none;fill-rule:nonzero;fill:rgb(78.039216%,15.686275%,10.196078%);fill-opacity:1;" d="M 595.847656 39.980469 C 587.699219 38.84375 585.046875 34.484375 589.214844 29.367188 C 592.058594 25.957031 624.265625 25.199219 626.160156 28.421875 C 628.242188 31.832031 625.023438 37.894531 620.855469 38.652344 C 611.949219 40.546875 603.046875 40.925781 595.847656 39.980469 Z M 595.847656 39.980469 "/>
<path style=" stroke:none;fill-rule:nonzero;fill:rgb(78.039216%,15.686275%,10.196078%);fill-opacity:1;" d="M 1070.4375 40.359375 C 1052.628906 39.601562 1045.808594 38.085938 1045.808594 35.050781 C 1045.808594 32.019531 1052.820312 30.882812 1081.804688 29.367188 C 1104.917969 28.042969 1108.707031 29.367188 1103.78125 36.757812 C 1100.371094 42.0625 1102.265625 41.875 1070.4375 40.359375 Z M 1070.4375 40.359375 "/>
<path style=" stroke:none;fill-rule:nonzero;fill:rgb(78.039216%,15.686275%,10.196078%);fill-opacity:1;" d="M 1232.425781 39.789062 C 1224.089844 38.652344 1221.816406 34.671875 1226.742188 29.558594 C 1229.203125 27.285156 1233.75 26.527344 1246.824219 26.527344 C 1263.496094 26.527344 1263.6875 26.527344 1263.6875 31.261719 C 1263.6875 33.726562 1262.171875 36.570312 1260.464844 37.515625 C 1255.917969 39.980469 1241.707031 41.117188 1232.425781 39.789062 Z M 1232.425781 39.789062 "/>
<path style=" stroke:none;fill-rule:nonzero;fill:rgb(78.039216%,15.686275%,10.196078%);fill-opacity:1;" d="M 1692.808594 39.980469 C 1683.523438 39.222656 1674.621094 38.085938 1673.292969 37.136719 C 1667.609375 33.726562 1675.566406 31.640625 1701.523438 29.9375 C 1723.5 28.421875 1728.804688 28.609375 1730.890625 30.695312 C 1733.164062 32.96875 1733.164062 33.914062 1730.511719 37.515625 C 1727.289062 42.0625 1726.152344 42.253906 1692.808594 39.980469 Z M 1692.808594 39.980469 "/>
<path style=" stroke:none;fill-rule:nonzero;fill:rgb(78.039216%,15.686275%,10.196078%);fill-opacity:1;" d="M 1859.53125 39.980469 C 1851.007812 38.652344 1848.164062 33.347656 1854.039062 28.988281 C 1858.015625 25.957031 1888.140625 25.578125 1889.84375 28.421875 C 1891.929688 31.832031 1888.707031 37.894531 1884.539062 38.652344 C 1875.636719 40.546875 1866.730469 40.925781 1859.53125 39.980469 Z M 1859.53125 39.980469 "/>
<path style=" stroke:none;fill-rule:nonzero;fill:rgb(78.039216%,15.686275%,10.196078%);fill-opacity:1;" d="M 526.695312 38.464844 C 505.285156 36.949219 501.875 36 502.441406 31.640625 C 503.011719 28.042969 504.714844 27.285156 515.324219 25.957031 C 529.347656 24.253906 551.132812 25.578125 553.785156 28.230469 C 555.113281 29.558594 554.542969 31.832031 552.460938 34.863281 C 549.238281 39.980469 548.671875 40.167969 526.695312 38.464844 Z M 526.695312 38.464844 "/>
<path style=" stroke:none;fill-rule:nonzero;fill:rgb(78.039216%,15.686275%,10.196078%);fill-opacity:1;" d="M 1156.074219 37.894531 C 1147.546875 37.136719 1139.78125 36 1139.210938 35.242188 C 1138.453125 34.484375 1138.832031 32.398438 1139.78125 30.695312 C 1144.136719 23.875 1188.472656 22.925781 1191.125 29.558594 C 1191.691406 31.074219 1190.554688 34.105469 1188.851562 36 C 1185.0625 40.167969 1182.976562 40.167969 1156.074219 37.894531 Z M 1156.074219 37.894531 "/>
<path style=" stroke:none;fill-rule:nonzero;fill:rgb(78.039216%,15.686275%,10.196078%);fill-opacity:1;" d="M 1790.378906 38.464844 C 1770.105469 37.136719 1765.75 36 1765.75 32.210938 C 1765.75 27.09375 1772.191406 25.769531 1795.496094 25.578125 C 1817.660156 25.578125 1821.261719 27.285156 1816.144531 34.863281 C 1812.925781 39.980469 1812.355469 40.167969 1790.378906 38.464844 Z M 1790.378906 38.464844 "/>
</g>
</svg>
